<svg width="352" height="65" viewBox="0 0 352 65" fill="none" xmlns="http://www.w3.org/2000/svg">
<g opacity="0.5" clip-path="url(#clip0_1_104)">
<path d="M26.9624 16.5009C27.5078 16.5009 27.9809 16.6099 28.3564 16.8407C28.732 17.0708 29.1075 17.5074 29.4717 18.1618L36.6704 31.2292C36.7435 31.374 36.7557 31.4959 36.7192 31.5926C36.6834 31.6894 36.5744 31.7381 36.4046 31.7381H33.6408C33.3986 31.7381 33.2295 31.6414 33.1442 31.4593L31.6046 28.6595H21.387L19.884 31.4593C19.7872 31.6536 19.6174 31.7381 19.3873 31.7381H16.5634C16.3692 31.7381 16.2602 31.6894 16.2237 31.5934C16.1871 31.4959 16.1993 31.3747 16.2724 31.2292L23.4102 18.1618C23.7744 17.5066 24.1255 17.0708 24.4767 16.8407C24.8287 16.6099 25.2286 16.5009 25.6887 16.5009H26.9616H26.9624ZM22.7323 26.1133H30.2228L26.7697 19.7373C26.7087 19.6406 26.6363 19.5796 26.5266 19.5796H26.3933C26.2966 19.5796 26.212 19.6284 26.1511 19.7373L22.733 26.1141L22.7323 26.1133ZM52.4886 16.5009C54.1607 16.5009 55.3491 16.8765 56.0766 17.6285C56.8033 18.3797 57.1667 19.4951 57.1667 20.9738V22.2103C57.1667 23.459 56.9122 24.441 56.4034 25.1679C55.8938 25.8954 55.0703 26.3564 53.9185 26.5621L57.6397 31.1683C57.7121 31.2414 57.7365 31.3503 57.7007 31.4959C57.6755 31.6406 57.5544 31.7137 57.3487 31.7137H54.5485C54.355 31.7137 54.2338 31.6894 54.1607 31.6528C54.0764 31.5929 54.0028 31.5192 53.9429 31.4349L50.5004 26.914H43.4708V31.2414C43.4708 31.556 43.3131 31.7137 42.9985 31.7137H40.6469C40.3071 31.7137 40.1494 31.556 40.1494 31.2414V17.1554C40.1494 16.7188 40.3681 16.5009 40.8046 16.5009H52.4886ZM43.483 24.2711H51.8091C52.5488 24.2711 53.0699 24.1134 53.373 23.7988C53.6762 23.4834 53.8339 22.9988 53.8339 22.3436V21.4347C53.8339 20.7795 53.6762 20.295 53.373 19.9796C53.0699 19.6649 52.5488 19.5072 51.8091 19.5072H43.7618C43.5675 19.5072 43.483 19.5918 43.483 19.7739V24.2711ZM75.3593 16.5009C76.8501 16.5009 77.9174 16.8042 78.5474 17.3977C79.1773 17.9919 79.4927 18.8886 79.4927 20.0893V21.1315C79.4927 22.3436 79.0318 23.2647 78.0987 23.8956C79.0928 24.4768 79.6016 25.4109 79.6016 26.6954V27.9563C79.6016 28.5383 79.5407 29.0594 79.4082 29.5196C79.2748 29.9805 79.0684 30.3805 78.7652 30.7081C78.4628 31.0357 78.0743 31.2894 77.5776 31.4593C77.0809 31.6292 76.4746 31.7259 75.7478 31.7259H62.8266C62.3909 31.7259 62.1723 31.508 62.1723 31.0707V17.1561C62.1723 16.7196 62.3909 16.5017 62.8274 16.5017H75.3593V16.5009ZM65.5058 22.8282H74.4262C75.1537 22.8282 75.6381 22.7192 75.9048 22.5006C76.1714 22.2835 76.2933 21.9673 76.2933 21.5437V20.8047C76.2933 20.3552 76.1714 20.0284 75.917 19.8105C75.6625 19.6048 75.2504 19.4951 74.6928 19.4951H65.7968C65.6025 19.4951 65.518 19.5918 65.518 19.7739V22.8289L65.5058 22.8282ZM65.5058 25.2044V28.4408C65.5058 28.6351 65.6025 28.7196 65.7846 28.7196H74.705C75.287 28.7196 75.6991 28.6107 75.9413 28.4042C76.1836 28.1985 76.3169 27.8587 76.3169 27.3986V26.5742C76.3169 26.1255 76.1836 25.7865 75.917 25.5556C75.6503 25.3256 75.1537 25.2044 74.4262 25.2044H65.5058ZM87.7107 16.5009C88.0253 16.5009 88.183 16.6586 88.183 16.9733V31.2414C88.183 31.556 88.0253 31.7137 87.7107 31.7137H85.3591C85.0194 31.7137 84.8617 31.556 84.8617 31.2414V16.9855C84.8617 16.6708 85.0316 16.5131 85.3591 16.5131L87.7107 16.5009ZM110.497 16.5009C110.837 16.5009 110.994 16.6586 110.994 16.9733V19.1065C110.994 19.4463 110.824 19.604 110.497 19.604H103.673V31.2414C103.673 31.556 103.515 31.7137 103.201 31.7137H100.825C100.509 31.7137 100.352 31.556 100.352 31.2414V19.604H93.5284C93.1886 19.604 93.0309 19.4341 93.0309 19.1073V16.9733C93.0309 16.6579 93.2008 16.5002 93.5284 16.5002H110.497V16.5009ZM127.696 16.5009C129.368 16.5009 130.557 16.8765 131.283 17.6285C132.011 18.3797 132.374 19.4951 132.374 20.9738V22.2103C132.374 23.459 132.12 24.441 131.611 25.1679C131.102 25.8954 130.278 26.3564 129.126 26.5621L132.847 31.1683C132.92 31.2414 132.944 31.3503 132.907 31.4959C132.883 31.6406 132.762 31.7137 132.556 31.7137H129.756C129.563 31.7137 129.441 31.6894 129.368 31.6528C129.284 31.5929 129.21 31.5192 129.15 31.4349L125.708 26.914H118.678V31.2414C118.678 31.556 118.521 31.7137 118.205 31.7137H115.854C115.515 31.7137 115.357 31.556 115.357 31.2414V17.1554C115.357 16.7188 115.576 16.5009 116.012 16.5009H127.696ZM118.703 24.2711H127.03C127.769 24.2711 128.29 24.1134 128.593 23.7988C128.896 23.4834 129.054 22.9988 129.054 22.3436V21.4347C129.054 20.7795 128.896 20.295 128.593 19.9796C128.29 19.6649 127.769 19.5072 127.03 19.5072H118.981C118.787 19.5072 118.703 19.5918 118.703 19.7739V24.2711ZM139.926 16.5009C140.24 16.5009 140.398 16.6586 140.398 16.9733V25.6532C140.398 26.2352 140.447 26.7198 140.543 27.0954C140.64 27.4839 140.798 27.7864 141.017 28.0043C141.234 28.2351 141.525 28.3928 141.901 28.4774C142.277 28.5741 142.737 28.6221 143.307 28.6221H149.331C149.9 28.6221 150.361 28.5741 150.737 28.4774C151.113 28.3806 151.403 28.2229 151.622 28.005C151.84 27.7742 151.997 27.4717 152.082 27.0954C152.167 26.7076 152.215 26.2345 152.215 25.6532V16.9733C152.215 16.6579 152.373 16.5002 152.688 16.5002H155.064C155.379 16.5002 155.537 16.6579 155.537 16.9725V25.9792C155.537 27.0222 155.428 27.9067 155.209 28.6457C154.991 29.3733 154.64 29.9676 154.155 30.4285C153.67 30.8887 153.04 31.2163 152.264 31.422C151.489 31.6277 150.555 31.7252 149.452 31.7252H143.186C142.083 31.7252 141.15 31.6284 140.386 31.422C139.622 31.2163 138.992 30.8887 138.507 30.4285C138.023 29.9676 137.671 29.3733 137.441 28.6457C137.211 27.9189 137.102 27.0222 137.102 25.9792V16.9741C137.102 16.6586 137.271 16.5009 137.598 16.5009H139.926ZM164.881 16.5009C165.157 16.4999 165.433 16.5203 165.706 16.5619C165.936 16.6099 166.142 16.683 166.312 16.8164C166.481 16.9375 166.639 17.1074 166.784 17.3131C166.918 17.5188 167.063 17.7976 167.209 18.1496L171.73 28.5871C171.79 28.7196 171.887 28.7806 172.033 28.7806H172.299C172.445 28.7806 172.542 28.7196 172.602 28.5863L177.123 18.1488C177.269 17.7984 177.414 17.5196 177.547 17.3131C177.681 17.1074 177.838 16.9375 178.02 16.8164C178.19 16.6945 178.396 16.6107 178.614 16.5619C178.845 16.5131 179.111 16.5009 179.426 16.5009H181.753C182.505 16.5009 183.014 16.6708 183.28 17.0099C183.547 17.3497 183.668 17.9317 183.668 18.7553V31.2414C183.668 31.556 183.498 31.7137 183.172 31.7137H180.953C180.638 31.7137 180.481 31.556 180.481 31.2414V19.8828C180.481 19.7381 180.42 19.6649 180.311 19.6649H180.117C179.971 19.6649 179.875 19.7259 179.838 19.8348L175.451 29.5805C175.281 29.9683 175.099 30.3074 174.917 30.5748C174.752 30.8205 174.557 31.0445 174.336 31.2414C174.126 31.4156 173.883 31.5435 173.62 31.617C173.354 31.6894 173.038 31.7259 172.675 31.7259H171.633C171.269 31.7259 170.954 31.6894 170.688 31.617C170.423 31.5487 170.179 31.4202 169.972 31.2414C169.745 31.0506 169.549 30.8257 169.39 30.5748C169.18 30.2617 169.002 29.9287 168.857 29.5805L164.469 19.8341C164.421 19.7129 164.336 19.6649 164.19 19.6649H163.997C163.876 19.6649 163.827 19.7373 163.827 19.8828V31.2414C163.827 31.556 163.669 31.7137 163.354 31.7137H161.136C160.797 31.7137 160.639 31.556 160.639 31.2414V18.7553C160.639 17.931 160.772 17.3497 161.028 17.0106C161.294 16.6708 161.803 16.5009 162.566 16.5009H164.881Z" fill="white"/>
</g>
<g opacity="0.5" clip-path="url(#clip1_1_104)">
<mask id="mask0_1_104" style="mask-type:luminance" maskUnits="userSpaceOnUse" x="215" y="16" width="116" height="17">
<path d="M215.804 16.5H330.09V32.5H215.804V16.5Z" fill="white"/>
</mask>
<g mask="url(#mask0_1_104)">
<path d="M221.575 31.8887C219.879 31.8887 218.49 31.49 217.407 30.692C216.338 29.8793 215.804 28.7253 215.804 27.2293C215.804 26.916 215.839 26.5313 215.911 26.0753C216.096 25.0487 216.36 23.8167 216.701 22.3773C217.671 18.46 220.171 16.5 224.204 16.5C225.301 16.5 226.284 16.6853 227.154 17.056C228.023 17.412 228.707 17.9533 229.205 18.68C229.704 19.3927 229.953 20.2473 229.953 21.2447C229.953 21.5447 229.918 21.9213 229.847 22.378C229.638 23.62 229.382 24.8534 229.077 26.0753C228.579 28.0273 227.717 29.488 226.491 30.4567C225.266 31.4113 223.627 31.8887 221.575 31.8887ZM221.874 28.8107C222.672 28.8107 223.349 28.576 223.905 28.1053C224.474 27.6353 224.881 26.916 225.123 25.9467C225.451 24.6073 225.7 23.4393 225.871 22.442C225.928 22.1389 225.957 21.8311 225.956 21.5227C225.956 20.226 225.279 19.578 223.926 19.578C223.128 19.578 222.444 19.8127 221.874 20.2833C221.318 20.7533 220.919 21.4727 220.677 22.442C220.421 23.3967 220.164 24.5647 219.907 25.9467C219.849 26.2425 219.821 26.5433 219.822 26.8447C219.822 28.1553 220.506 28.8107 221.874 28.8107ZM232.122 31.6747C231.965 31.6747 231.844 31.6253 231.759 31.5253C231.687 31.4107 231.664 31.2724 231.694 31.1407L234.644 17.248C234.67 17.0946 234.754 16.957 234.879 16.8633C234.993 16.7686 235.137 16.7159 235.285 16.714H240.97C242.552 16.714 243.82 17.0413 244.775 17.6967C245.743 18.3527 246.228 19.3 246.228 20.5393C246.228 20.896 246.185 21.266 246.099 21.6507C245.743 23.2893 245.024 24.5007 243.941 25.284C242.872 26.068 241.405 26.46 239.538 26.46H236.653L235.669 31.14C235.643 31.2936 235.559 31.4315 235.435 31.5253C235.32 31.6201 235.177 31.6727 235.028 31.6747H232.122ZM239.688 23.5107C240.286 23.5107 240.806 23.3467 241.248 23.0187C241.704 22.6913 242.003 22.2207 242.146 21.608C242.189 21.366 242.21 21.152 242.21 20.9667C242.21 20.5533 242.089 20.24 241.847 20.0267C241.604 19.7987 241.191 19.6847 240.607 19.6847H238.042L237.23 23.5107H239.688ZM251.044 31.6747C250.887 31.6747 250.766 31.6253 250.68 31.5253C250.638 31.4715 250.609 31.409 250.594 31.3425C250.58 31.276 250.58 31.2071 250.595 31.1407L252.967 20.0693H249.163C249.006 20.0693 248.885 20.0193 248.799 19.92C248.728 19.8051 248.705 19.6665 248.735 19.5347L249.227 17.248C249.253 17.0945 249.337 16.9569 249.462 16.8633C249.576 16.7688 249.72 16.7161 249.868 16.714H261.367C261.523 16.714 261.645 16.7633 261.73 16.8633C261.784 16.9384 261.813 17.0278 261.815 17.12C261.815 17.1627 261.809 17.2053 261.794 17.248L261.303 19.5347C261.276 19.6884 261.192 19.8263 261.067 19.92C260.956 20.0189 260.811 20.0722 260.661 20.0693H256.879L254.505 31.1407C254.479 31.2941 254.395 31.4316 254.271 31.5253C254.156 31.6199 254.013 31.6725 253.865 31.6747H251.044ZM262.361 31.6747C262.204 31.6747 262.083 31.6253 261.997 31.5253C261.956 31.4715 261.926 31.409 261.912 31.3425C261.897 31.276 261.897 31.2071 261.912 31.1407L264.883 17.248C264.909 17.0945 264.993 16.9569 265.118 16.8633C265.232 16.7688 265.376 16.7161 265.524 16.714H268.409C268.566 16.714 268.687 16.7633 268.773 16.8633C268.826 16.9384 268.856 17.0278 268.858 17.12C268.858 17.1627 268.851 17.2053 268.837 17.248L265.887 31.1407C265.861 31.2942 265.777 31.4317 265.652 31.5253C265.538 31.6199 265.394 31.6726 265.246 31.6747H262.361ZM270.499 31.6747C270.342 31.6747 270.221 31.6253 270.136 31.5253C270.05 31.4253 270.022 31.2973 270.05 31.1407L273 17.248C273.026 17.0946 273.11 16.957 273.235 16.8633C273.356 16.7662 273.507 16.7135 273.662 16.714H275.971C276.313 16.714 276.533 16.8707 276.633 17.184L278.963 23.9167L284.157 17.1833C284.228 17.07 284.327 16.9633 284.455 16.8633C284.607 16.7611 284.786 16.7089 284.969 16.714H287.298C287.455 16.714 287.576 16.7633 287.661 16.8633C287.703 16.9171 287.731 16.9804 287.742 17.0475C287.754 17.1146 287.748 17.1835 287.726 17.248L284.776 31.1407C284.75 31.2941 284.666 31.4317 284.541 31.5253C284.427 31.6198 284.284 31.6724 284.135 31.6747H281.549C281.392 31.6747 281.271 31.6253 281.185 31.5253C281.114 31.4106 281.091 31.2723 281.121 31.1407L282.789 23.254L279.519 27.5927C279.398 27.7297 279.262 27.8517 279.112 27.956C278.979 28.0429 278.822 28.0875 278.663 28.084H277.552C277.253 28.084 277.047 27.9207 276.932 27.5927L275.415 23.0613L273.705 31.1407C273.679 31.2942 273.595 31.4317 273.47 31.5253C273.355 31.6201 273.212 31.6727 273.063 31.6747H270.499ZM289.365 31.6747C289.208 31.6747 289.087 31.6253 289.001 31.5253C288.96 31.4715 288.93 31.409 288.916 31.3425C288.901 31.276 288.901 31.2071 288.916 31.1407L291.887 17.248C291.913 17.0944 291.997 16.9568 292.122 16.8633C292.236 16.7687 292.38 16.716 292.528 16.714H295.413C295.57 16.714 295.691 16.7633 295.777 16.8633C295.83 16.9383 295.86 17.0278 295.862 17.12C295.862 17.1627 295.855 17.2053 295.841 17.248L292.891 31.1407C292.865 31.2943 292.781 31.432 292.656 31.5253C292.542 31.6199 292.398 31.6726 292.25 31.6747H289.365ZM302.782 31.8887C301.528 31.8887 300.453 31.7173 299.555 31.3753C298.671 31.034 298.001 30.578 297.546 30.008C297.104 29.438 296.883 28.804 296.883 28.1053C296.883 27.992 296.897 27.8207 296.925 27.5927C296.951 27.4718 297.01 27.3607 297.097 27.2727C297.191 27.1889 297.313 27.1431 297.439 27.144H300.174C300.346 27.144 300.474 27.1727 300.559 27.2293C300.659 27.286 300.759 27.386 300.859 27.5287C300.958 27.8987 301.186 28.2053 301.543 28.4473C301.913 28.69 302.419 28.8107 303.059 28.8107C303.872 28.8107 304.528 28.6827 305.026 28.426C305.525 28.17 305.825 27.8207 305.923 27.3793C305.938 27.322 305.945 27.2367 305.945 27.1227C305.945 26.766 305.725 26.4887 305.283 26.2893C304.841 26.0753 304.029 25.826 302.846 25.5407C301.464 25.2413 300.417 24.7927 299.704 24.194C298.992 23.5813 298.636 22.784 298.636 21.8007C298.636 21.4587 298.679 21.1093 298.764 20.7533C299.049 19.428 299.755 18.388 300.88 17.6333C302.019 16.8773 303.487 16.5 305.283 16.5C306.365 16.5 307.328 16.6927 308.168 17.0773C309.009 17.462 309.657 17.9533 310.113 18.552C310.583 19.136 310.818 19.72 310.818 20.3047C310.818 20.4753 310.811 20.5967 310.797 20.668C310.77 20.7932 310.703 20.9058 310.605 20.988C310.563 21.0302 310.513 21.0634 310.458 21.0855C310.403 21.1076 310.343 21.1182 310.284 21.1167H307.42C307.107 21.1167 306.893 20.9953 306.779 20.7533C306.765 20.4253 306.593 20.148 306.266 19.92C305.938 19.692 305.511 19.578 304.983 19.578C304.357 19.578 303.837 19.6913 303.423 19.92C303.025 20.148 302.775 20.4827 302.675 20.924C302.659 21.0158 302.652 21.1088 302.653 21.202C302.653 21.544 302.853 21.8287 303.253 22.0567C303.665 22.2707 304.385 22.4913 305.411 22.7193C307.007 23.0327 308.168 23.482 308.895 24.066C309.635 24.65 310.006 25.4267 310.006 26.396C310.006 26.7233 309.963 27.08 309.878 27.4647C309.565 28.918 308.802 30.022 307.591 30.7773C306.395 31.518 304.791 31.8887 302.782 31.8887ZM312.842 31.6747C312.685 31.6747 312.563 31.6253 312.478 31.5253C312.393 31.4253 312.364 31.2973 312.393 31.1407L315.342 17.248C315.369 17.0943 315.453 16.9566 315.578 16.8633C315.706 16.7633 315.848 16.714 316.005 16.714H318.313C318.655 16.714 318.876 16.8707 318.976 17.184L321.306 23.9167L326.499 17.1833C326.571 17.07 326.67 16.9633 326.798 16.8633C326.941 16.7633 327.111 16.714 327.311 16.714H329.641C329.798 16.714 329.919 16.7633 330.005 16.8633C330.058 16.9385 330.088 17.0278 330.09 17.12C330.09 17.1635 330.083 17.2067 330.069 17.248L327.119 31.1407C327.092 31.2941 327.008 31.4314 326.883 31.5253C326.769 31.62 326.626 31.6727 326.477 31.6747H323.891C323.735 31.6747 323.613 31.6253 323.528 31.5253C323.457 31.4107 323.434 31.2723 323.464 31.1407L325.131 23.254L321.861 27.5927C321.741 27.7296 321.605 27.8516 321.455 27.956C321.322 28.0429 321.165 28.0875 321.006 28.084H319.895C319.595 28.084 319.389 27.9207 319.275 27.5927L317.757 23.0613L316.048 31.1407C316.021 31.294 315.937 31.4314 315.813 31.5253C315.698 31.62 315.555 31.6727 315.406 31.6747H312.842Z" fill="white"/>
</g>
</g>
<defs>
<clipPath id="clip0_1_104">
<rect width="167.59" height="32" fill="white" transform="translate(16.2039 16.5)"/>
</clipPath>
<clipPath id="clip1_1_104">
<rect width="120" height="24" fill="white" transform="translate(215.804 16.5)"/>
</clipPath>
</defs>
</svg>
