<svg width="1152" height="159" viewBox="0 0 1152 159" fill="none" xmlns="http://www.w3.org/2000/svg">
<path d="M538.687 49.5V36.9H543.115C544.003 36.9 544.735 37.044 545.311 37.332C545.899 37.608 546.337 37.992 546.625 38.484C546.913 38.964 547.057 39.504 547.057 40.104C547.057 40.92 546.835 41.562 546.391 42.03C545.959 42.498 545.437 42.822 544.825 43.002C545.293 43.086 545.719 43.272 546.103 43.56C546.487 43.848 546.787 44.208 547.003 44.64C547.231 45.072 547.345 45.546 547.345 46.062C547.345 46.698 547.189 47.28 546.877 47.808C546.565 48.324 546.103 48.738 545.491 49.05C544.879 49.35 544.135 49.5 543.259 49.5H538.687ZM540.199 42.408H543.007C543.811 42.408 544.429 42.222 544.861 41.85C545.293 41.466 545.509 40.938 545.509 40.266C545.509 39.63 545.293 39.12 544.861 38.736C544.441 38.352 543.805 38.16 542.953 38.16H540.199V42.408ZM540.199 48.24H543.097C543.961 48.24 544.627 48.042 545.095 47.646C545.563 47.238 545.797 46.674 545.797 45.954C545.797 45.246 545.551 44.682 545.059 44.262C544.567 43.83 543.901 43.614 543.061 43.614H540.199V48.24ZM554.069 49.716C553.205 49.716 552.419 49.548 551.711 49.212C551.015 48.864 550.457 48.33 550.037 47.61C549.617 46.89 549.407 45.972 549.407 44.856V36.9H550.919V44.874C550.919 46.098 551.213 46.986 551.801 47.538C552.389 48.09 553.157 48.366 554.105 48.366C555.053 48.366 555.815 48.09 556.391 47.538C556.967 46.986 557.255 46.098 557.255 44.874V36.9H558.767V44.856C558.767 45.972 558.557 46.89 558.137 47.61C557.717 48.33 557.153 48.864 556.445 49.212C555.737 49.548 554.945 49.716 554.069 49.716ZM561.327 49.5V36.9H562.839V49.5H561.327ZM565.511 49.5V36.9H567.023V48.294H572.891V49.5H565.511ZM575.916 49.5V38.142H572.154V36.9H581.19V38.142H577.428V49.5H575.916ZM593.524 49.716C592.288 49.716 591.202 49.446 590.266 48.906C589.342 48.354 588.616 47.586 588.088 46.602C587.572 45.618 587.314 44.484 587.314 43.2C587.314 41.916 587.572 40.788 588.088 39.816C588.616 38.832 589.342 38.064 590.266 37.512C591.202 36.96 592.288 36.684 593.524 36.684C594.772 36.684 595.858 36.96 596.782 37.512C597.718 38.064 598.444 38.832 598.96 39.816C599.476 40.788 599.734 41.916 599.734 43.2C599.734 44.484 599.476 45.618 598.96 46.602C598.444 47.586 597.718 48.354 596.782 48.906C595.858 49.446 594.772 49.716 593.524 49.716ZM593.524 48.384C594.448 48.384 595.258 48.18 595.954 47.772C596.662 47.352 597.208 46.758 597.592 45.99C597.988 45.21 598.186 44.28 598.186 43.2C598.186 42.12 597.988 41.196 597.592 40.428C597.208 39.66 596.662 39.072 595.954 38.664C595.258 38.244 594.448 38.034 593.524 38.034C592.6 38.034 591.784 38.244 591.076 38.664C590.38 39.072 589.834 39.66 589.438 40.428C589.054 41.196 588.862 42.12 588.862 43.2C588.862 44.28 589.054 45.21 589.438 45.99C589.834 46.758 590.38 47.352 591.076 47.772C591.784 48.18 592.6 48.384 593.524 48.384ZM601.915 49.5V36.9H603.427L610.141 46.998V36.9H611.653V49.5H610.141L603.427 39.402V49.5H601.915Z" fill="#34D399"/>
<g opacity="0.5" clip-path="url(#clip0_1_75)">
<path d="M417.953 90.2727H408.245V75.6593H411.236V87.6873H417.953V90.2727ZM428.557 79.5673L424.324 90.8827C423.903 92.0227 423.38 92.826 422.755 93.2947C422.131 93.7633 421.31 93.998 420.293 93.998C420.075 93.998 419.897 93.9933 419.754 93.986C419.611 93.9793 419.418 93.9627 419.174 93.936V91.6353C419.379 91.6493 419.547 91.66 419.683 91.666C419.819 91.674 419.921 91.678 419.989 91.678C420.396 91.678 420.707 91.6027 420.925 91.4527C421.141 91.3033 421.317 91.0527 421.453 90.6993L421.8 89.8453L417.954 79.5673H420.905L423.327 86.6093L425.687 79.5673H428.557ZM435.132 79.506C435.227 79.506 435.325 79.5093 435.427 79.5153C435.527 79.522 435.66 79.532 435.823 79.546V82.336C435.661 82.3104 435.498 82.2928 435.334 82.2833C435.192 82.2771 435.049 82.274 434.907 82.274C434.119 82.274 433.485 82.5053 433.002 82.9673C432.521 83.4273 432.281 84.052 432.281 84.838V90.2727H429.431V79.5667H432.28V81.072C432.525 80.5827 432.902 80.2 433.41 79.9233C433.919 79.6447 434.493 79.5053 435.131 79.5053L435.132 79.506ZM443.151 89.2753C442.798 89.6553 442.35 89.9473 441.807 90.1513C441.264 90.354 440.653 90.4553 439.975 90.4553C438.903 90.4553 438.028 90.1647 437.348 89.582C436.671 88.9973 436.333 88.2373 436.333 87.3C436.333 86.378 436.647 85.6353 437.277 85.0733C437.909 84.51 438.882 84.1133 440.197 83.8813L442.866 83.3733V83.2093C442.866 82.708 442.73 82.3353 442.458 82.0913C442.187 81.846 441.773 81.7233 441.216 81.7233C440.7 81.7233 440.293 81.8387 439.993 82.07C439.695 82.3013 439.486 82.6607 439.364 83.1473L436.657 82.6393C436.91 81.6742 437.498 80.8303 438.315 80.258C439.151 79.662 440.151 79.3633 441.318 79.3633C442.715 79.3633 443.787 79.6827 444.533 80.32C445.279 80.958 445.653 81.8813 445.653 83.0887V87.464C445.653 87.7487 445.721 87.9427 445.855 88.0453C445.991 88.1473 446.216 88.1773 446.529 88.136V90.2727C445.646 90.394 444.923 90.3733 444.359 90.2107C443.797 90.048 443.395 89.736 443.151 89.2753ZM440.544 88.2973C441.209 88.2973 441.762 88.128 442.204 87.7893C442.645 87.4507 442.866 87.0093 442.866 86.4667V85.3673L440.77 85.7947C440.186 85.904 439.768 86.0673 439.516 86.284C439.266 86.5013 439.141 86.786 439.141 87.1387C439.141 87.5047 439.266 87.7893 439.516 87.9933C439.768 88.1967 440.11 88.2973 440.544 88.2973Z" fill="white"/>
<path fill-rule="evenodd" clip-rule="evenodd" d="M372.204 86.7453C372.575 87.3347 373.279 87.9147 375.197 87.912H393.855C394.577 87.912 395.393 88.454 395.679 89.1253L398.773 96.45C399.057 97.122 398.7 97.6667 397.977 97.6667H378.855C377.717 97.5947 376.662 97.2947 376.173 96.1393L372.204 86.7453ZM388.248 71.594L391.377 79.01C391.661 79.6847 391.484 80.6567 390.979 81.1847L386.442 86.0207H376.127C374.493 86.04 373.525 85.4093 374.913 83.874L386.824 71.3293C387.326 70.802 387.964 70.9193 388.248 71.594Z" fill="white"/>
</g>
<g opacity="0.5" clip-path="url(#clip1_1_75)">
<mask id="mask0_1_75" style="mask-type:luminance" maskUnits="userSpaceOnUse" x="484" y="77" width="182" height="14">
<path d="M484.204 77H665.523V90.16H484.204V77Z" fill="white"/>
</mask>
<g mask="url(#mask0_1_75)">
<path d="M501.702 83.2407C500.929 82.4853 500 82.1073 498.914 82.1073H488.151C487.951 82.1073 487.78 82.038 487.637 81.8987C487.567 81.8337 487.513 81.7549 487.476 81.6674C487.439 81.5799 487.42 81.4856 487.422 81.3907V80.5173C487.421 80.4245 487.44 80.3325 487.477 80.2473C487.514 80.1621 487.568 80.0856 487.637 80.0227C487.704 79.9553 487.785 79.9021 487.873 79.8662C487.961 79.8304 488.056 79.8126 488.151 79.814H502.028C502.05 79.8149 502.073 79.8093 502.092 79.7978C502.111 79.7863 502.126 79.7695 502.136 79.7493C502.142 79.737 502.145 79.7236 502.145 79.71V77.104C502.145 77.0693 502.134 77.044 502.112 77.026C502.088 77.0081 502.058 76.9989 502.028 77H488.151C487.058 77 486.126 77.378 485.357 78.1333C484.588 78.89 484.204 79.802 484.204 80.87V81.04C484.204 82.1167 484.588 83.0333 485.357 83.7887C486.125 84.5447 487.057 84.922 488.152 84.922H498.914C499.105 84.922 499.272 84.9893 499.415 85.124C499.485 85.1875 499.54 85.2652 499.577 85.3518C499.614 85.4383 499.632 85.5319 499.63 85.626V86.4993C499.63 86.6993 499.559 86.866 499.415 87.0007C499.282 87.1316 499.101 87.2042 498.914 87.2027H485.024C485.011 87.203 484.997 87.2061 484.985 87.2117C484.973 87.2173 484.962 87.2254 484.953 87.2353C484.942 87.2465 484.933 87.2597 484.928 87.2743C484.922 87.2889 484.919 87.3044 484.92 87.32V89.926C484.92 89.9527 484.931 89.976 484.953 89.9973C484.962 90.0075 484.973 90.0156 484.985 90.0214C484.997 90.0271 485.011 90.0303 485.024 90.0307H498.913C499.999 90.0307 500.928 89.6507 501.701 88.8907C502.475 88.1307 502.861 87.216 502.861 86.1473V85.978C502.861 84.9093 502.475 83.9973 501.701 83.2413L501.702 83.2407ZM525.067 77H522.057C522.03 77 522.005 77.0092 521.985 77.026C521.963 77.0433 521.953 77.0693 521.953 77.104V80.4133C521.953 80.7 521.805 80.9173 521.509 81.0647L515.503 83.5533L509.497 81.0647C509.202 80.9173 509.054 80.7 509.054 80.4133V77.104C509.054 77.0693 509.045 77.044 509.028 77.026C509.011 77.0087 508.984 77 508.951 77H505.941C505.914 77 505.889 77.0092 505.869 77.026C505.847 77.0433 505.836 77.0693 505.836 77.104V80.8953C505.836 81.4607 505.993 81.9773 506.305 82.446C506.617 82.9137 507.061 83.2768 507.582 83.488L513.889 86.1327V89.9113C513.888 89.927 513.891 89.9427 513.896 89.9574C513.902 89.9721 513.91 89.9854 513.921 89.9967C513.932 90.0075 513.946 90.016 513.96 90.0217C513.974 90.0273 513.99 90.0299 514.005 90.0293H517.015C517.029 90.029 517.042 90.0258 517.055 90.0201C517.067 90.0144 517.078 90.0062 517.087 89.996C517.098 89.985 517.107 89.9717 517.112 89.9572C517.118 89.9426 517.121 89.927 517.12 89.9113V86.1333L523.425 83.5013C523.964 83.2667 524.39 82.9173 524.702 82.4527C525.015 81.988 525.171 81.4733 525.171 80.9087V77.104C525.171 77.0693 525.161 77.044 525.138 77.026C525.118 77.0095 525.093 77.0003 525.067 77ZM547.422 77H544.413C544.377 77 544.351 77.0107 544.334 77.0327C544.317 77.0527 544.308 77.0779 544.308 77.104V87.2147H543.044C542.81 87.2147 542.61 87.1107 542.445 86.9013L536.608 78.368C535.983 77.4907 535.118 77.0347 534.015 77H528.987C528.964 76.9989 528.942 77.0045 528.923 77.016C528.903 77.0275 528.888 77.0444 528.878 77.0647C528.872 77.077 528.87 77.0904 528.869 77.104V89.924C528.869 89.9507 528.88 89.9747 528.901 89.996C528.912 90.0072 528.926 90.0159 528.941 90.0217C528.955 90.0274 528.971 90.03 528.987 90.0293H531.996C532.01 90.0289 532.023 90.0258 532.035 90.0201C532.048 90.0143 532.059 90.0061 532.068 89.996C532.078 89.987 532.086 89.976 532.092 89.9637C532.097 89.9514 532.1 89.9382 532.101 89.9247V79.814H533.364C533.599 79.814 533.798 79.9227 533.964 80.1393L539.801 88.6733C540.426 89.5507 541.29 90.0027 542.393 90.028H547.422C547.457 90.028 547.483 90.0173 547.501 89.996C547.517 89.9759 547.527 89.9507 547.527 89.9247V77.104C547.527 77.0779 547.517 77.0527 547.501 77.0327C547.483 77.0107 547.457 76.9993 547.422 76.9993V77ZM569.176 77H550.74C550.705 77 550.679 77.0107 550.661 77.0327C550.645 77.0526 550.635 77.0779 550.635 77.104V79.71C550.635 79.736 550.644 79.76 550.662 79.7813C550.679 79.8033 550.705 79.8147 550.74 79.8147H558.349V89.9247C558.349 89.9507 558.357 89.9747 558.375 89.996C558.392 90.018 558.418 90.0293 558.453 90.0293H561.463C561.497 90.0293 561.523 90.018 561.541 89.996C561.557 89.976 561.567 89.9507 561.567 89.9247V79.814H569.175C569.191 79.8145 569.207 79.8117 569.221 79.806C569.248 79.795 569.27 79.7746 569.283 79.7487C569.289 79.7365 569.292 79.7234 569.293 79.71V77.104C569.292 77.0904 569.289 77.077 569.283 77.0647C569.278 77.0525 569.27 77.0416 569.26 77.0327C569.249 77.0218 569.236 77.0132 569.221 77.0076C569.207 77.002 569.192 76.9994 569.176 77ZM591.531 77H588.521C588.508 77.0003 588.495 77.0034 588.482 77.009C588.47 77.0146 588.459 77.0227 588.45 77.0327C588.44 77.0417 588.432 77.0527 588.426 77.0649C588.421 77.0772 588.418 77.0905 588.417 77.104V82.1073H576.222V77.104C576.222 77.0905 576.219 77.0772 576.213 77.0649C576.207 77.0527 576.199 77.0417 576.189 77.0327C576.178 77.0219 576.165 77.0135 576.151 77.0078C576.136 77.0022 576.121 76.9996 576.105 77H573.095C573.082 77.0002 573.069 77.0031 573.056 77.0088C573.044 77.0144 573.033 77.0225 573.024 77.0327C573.014 77.0417 573.006 77.0527 573 77.0649C572.995 77.0772 572.992 77.0905 572.991 77.104V89.924C572.991 89.9507 573.002 89.9747 573.024 89.996C573.033 90.0063 573.044 90.0146 573.056 90.0203C573.068 90.0261 573.082 90.0291 573.095 90.0293H576.105C576.121 90.0298 576.136 90.0271 576.151 90.0213C576.165 90.0156 576.178 90.007 576.189 89.996C576.199 89.987 576.207 89.976 576.213 89.9637C576.219 89.9514 576.222 89.9382 576.222 89.9247V84.9213H588.417V89.924C588.417 89.9507 588.428 89.974 588.45 89.996C588.459 90.006 588.47 90.014 588.482 90.0196C588.495 90.0252 588.508 90.0283 588.521 90.0287H591.531C591.554 90.0292 591.576 90.0233 591.595 90.0118C591.614 90.0002 591.629 89.9834 591.639 89.9633C591.645 89.9512 591.648 89.9381 591.649 89.9247V77.104C591.648 77.0904 591.645 77.0771 591.639 77.0647C591.629 77.0446 591.614 77.0278 591.595 77.0162C591.576 77.0047 591.554 76.9988 591.531 76.9993V77ZM613.807 77H599.202C598.115 77 597.187 77.3773 596.413 78.1333C595.641 78.8893 595.254 79.8013 595.254 80.8693V86.146C595.254 87.2233 595.641 88.1393 596.413 88.8953C597.187 89.6507 598.115 90.0287 599.202 90.0287H613.807C613.821 90.0283 613.834 90.0253 613.846 90.0197C613.859 90.0141 613.87 90.006 613.879 89.996C613.889 89.9871 613.897 89.9762 613.902 89.964C613.908 89.9517 613.911 89.9383 613.911 89.9247V87.3187C613.911 87.284 613.901 87.2587 613.879 87.2407C613.859 87.2241 613.833 87.2149 613.807 87.2147H599.202C599.002 87.2147 598.833 87.146 598.694 87.0067C598.627 86.9428 598.574 86.8659 598.538 86.7807C598.502 86.6955 598.484 86.6038 598.485 86.5113V84.922H613.798C613.832 84.922 613.858 84.9107 613.876 84.8887C613.893 84.8686 613.902 84.8434 613.902 84.8173V82.2113C613.902 82.1767 613.893 82.1507 613.876 82.1333C613.858 82.116 613.832 82.1067 613.798 82.1067H598.485V80.518C598.485 80.3273 598.555 80.162 598.694 80.0233C598.833 79.884 599.002 79.8147 599.202 79.8147H613.807C613.821 79.8147 613.834 79.8113 613.846 79.8053C613.858 79.7999 613.87 79.7919 613.879 79.782C613.889 79.773 613.897 79.762 613.902 79.7497C613.908 79.7374 613.911 79.7242 613.911 79.7107V77.104C613.911 77.0905 613.908 77.0772 613.902 77.0649C613.897 77.0527 613.889 77.0417 613.879 77.0327C613.87 77.0227 613.859 77.0147 613.846 77.009C613.834 77.0034 613.821 77.0004 613.807 77ZM636.057 77H617.621C617.586 77 617.56 77.0107 617.543 77.0327C617.526 77.0527 617.517 77.0779 617.517 77.104V79.71C617.517 79.736 617.525 79.76 617.543 79.7813C617.56 79.8033 617.586 79.8147 617.621 79.8147H625.23V89.9247C625.23 89.9507 625.238 89.9747 625.255 89.996C625.273 90.018 625.299 90.0293 625.334 90.0293H628.344C628.379 90.0293 628.405 90.018 628.422 89.996C628.439 89.976 628.448 89.9507 628.448 89.9247V79.814H636.057C636.079 79.8147 636.101 79.8089 636.12 79.7975C636.139 79.786 636.155 79.7693 636.165 79.7493C636.171 79.7368 636.174 79.7232 636.174 79.7093V77.1047C636.174 77.0911 636.17 77.0777 636.165 77.0653C636.152 77.0394 636.13 77.0191 636.103 77.008C636.088 77.0025 636.073 77 636.057 77.0007V77ZM643.065 77.026C643.047 77.0087 643.021 77 642.986 77H639.977C639.942 77 639.915 77.0087 639.898 77.026C639.881 77.0433 639.872 77.0693 639.872 77.104V89.924C639.872 89.9507 639.881 89.9747 639.898 89.996C639.915 90.018 639.942 90.0293 639.977 90.0293H642.986C643.021 90.0293 643.047 90.018 643.065 89.996C643.081 89.9758 643.09 89.9507 643.091 89.9247V77.104C643.093 77.0756 643.083 77.0476 643.065 77.026ZM651.374 80.166C651.315 80.0956 651.241 80.0393 651.158 80.001C651.074 79.9627 650.983 79.9435 650.891 79.9447H646.983C646.968 79.9451 646.952 79.9424 646.938 79.9366C646.923 79.9309 646.91 79.9223 646.899 79.9113C646.889 79.9024 646.881 79.8915 646.875 79.8793C646.87 79.8672 646.867 79.854 646.866 79.8407V77.2347C646.866 77.208 646.877 77.1847 646.899 77.1633C646.91 77.1525 646.923 77.1439 646.937 77.138C646.952 77.1325 646.968 77.13 646.983 77.1307H651.113C652.155 77.1307 653.055 77.552 653.811 78.394L654.813 79.606L652.859 81.964L651.374 80.166ZM658.591 78.3813C659.347 77.5473 660.251 77.1307 661.301 77.1307H665.419C665.453 77.1307 665.479 77.1393 665.497 77.1567C665.514 77.174 665.523 77.2 665.523 77.2347V79.8407C665.523 79.8667 665.514 79.8918 665.497 79.912C665.479 79.934 665.453 79.9447 665.419 79.9447H661.51C661.418 79.9436 661.328 79.9628 661.244 80.0011C661.161 80.0394 661.087 80.0957 661.028 80.166L658.149 83.632L661.041 87.1233C661.1 87.1896 661.172 87.2425 661.253 87.2785C661.334 87.3145 661.422 87.3328 661.51 87.332H665.419C665.453 87.332 665.479 87.3433 665.497 87.3653C665.515 87.3897 665.524 87.4192 665.523 87.4493V90.0547C665.523 90.0807 665.514 90.1058 665.497 90.126C665.479 90.148 665.453 90.1593 665.419 90.1593H661.302C660.251 90.1593 659.352 89.7373 658.605 88.8953L656.208 86.0027L653.811 88.8953C653.055 89.738 652.151 90.1587 651.101 90.1587H646.983C646.949 90.1587 646.922 90.148 646.905 90.1267C646.887 90.1021 646.877 90.0719 646.879 90.0413V87.436C646.879 87.41 646.888 87.3848 646.905 87.3647C646.922 87.3427 646.949 87.3313 646.983 87.3313H650.891C651.074 87.3313 651.235 87.258 651.374 87.11L654.201 83.6967L658.591 78.3813Z" fill="white"/>
</g>
</g>
<g opacity="0.5">
<mask id="mask1_1_75" style="mask-type:luminance" maskUnits="userSpaceOnUse" x="698" y="71" width="81" height="24">
<path d="M698.204 71.0013H778.527V94.1195H698.204V71.0013Z" fill="white"/>
</mask>
<g mask="url(#mask1_1_75)">
<mask id="mask2_1_75" style="mask-type:luminance" maskUnits="userSpaceOnUse" x="698" y="71" width="81" height="24">
<path d="M778.527 71.0013H698.204V94.1195H778.527V71.0013Z" fill="white"/>
</mask>
<g mask="url(#mask2_1_75)">
<path d="M726.47 92.5815L713.149 72.5686L699.787 92.5815H718.403L713.149 84.943L710.543 88.9118H707.771L713.149 80.9319L720.926 92.5815H726.47ZM738.839 82.4421C738.684 82.4421 738.617 82.5087 738.617 82.6638V83.9951C738.617 84.1508 738.684 84.2168 738.839 84.2168H743.255V86.547C742.389 87.9674 740.836 88.7881 738.772 88.7881C735.466 88.7881 733.425 86.6578 733.425 82.5754C733.425 78.514 735.821 76.362 738.55 76.362C740.681 76.362 742.412 77.2051 742.966 79.2463C743.011 79.4021 743.099 79.4687 743.232 79.4687H744.653C744.808 79.4687 744.897 79.4021 744.897 79.2463C744.298 76.1397 741.635 74.5867 738.551 74.5867C735.09 74.5867 731.473 77.2493 731.473 82.5754C731.473 87.8341 734.89 90.5634 738.861 90.5634C741.28 90.5634 743.476 89.5652 744.897 87.3683C745.052 87.1467 745.118 86.8584 745.118 86.5252V82.6644C745.118 82.5087 745.052 82.4421 744.897 82.4421H738.839ZM761.871 75.0307C761.871 74.875 761.804 74.8083 761.649 74.8083H759.541C759.364 74.8083 759.252 74.875 759.187 75.0307L754.881 84.9049L750.577 75.0307C750.51 74.875 750.399 74.8083 750.222 74.8083H748.114C747.958 74.8083 747.892 74.875 747.892 75.0307V90.1194C747.892 90.2751 747.958 90.3417 748.114 90.3417H749.534C749.689 90.3417 749.756 90.2751 749.756 90.1194V77.7158L754.105 87.5458C754.171 87.6784 754.261 87.745 754.394 87.745H755.37C755.503 87.745 755.592 87.6784 755.658 87.5458L760.007 77.7158V90.1194C760.007 90.2751 760.074 90.3417 760.229 90.3417H761.649C761.805 90.3417 761.871 90.2751 761.871 90.1194L761.871 75.0307ZM766.708 75.0307C766.553 74.8308 766.553 74.8083 766.398 74.8083H764.689C764.533 74.8083 764.467 74.9198 764.533 75.0307L769.238 82.1538L763.957 90.1194C763.89 90.2302 763.957 90.3417 764.112 90.3417H765.776C765.931 90.3417 765.976 90.3193 766.131 90.1194L770.347 83.7734L774.563 90.1194C774.719 90.3193 774.763 90.3417 774.918 90.3417H776.582C776.737 90.3417 776.804 90.2302 776.737 90.1194L771.457 82.1531L776.161 75.0307C776.227 74.9198 776.161 74.8083 776.006 74.8083H774.297C774.141 74.8083 774.141 74.8308 773.986 75.0307L770.347 80.511L766.708 75.0307Z" fill="white"/>
</g>
</g>
</g>
<defs>
<clipPath id="clip0_1_75">
<rect width="80" height="40" fill="white" transform="translate(372.204 71)"/>
</clipPath>
<clipPath id="clip1_1_75">
<rect width="182" height="20" fill="white" transform="translate(484.204 77)"/>
</clipPath>
</defs>
</svg>
