<svg width="48" height="53" viewBox="0 0 48 53" fill="none" xmlns="http://www.w3.org/2000/svg">
<g clip-path="url(#clip0_1_7)">
<mask id="mask0_1_7" style="mask-type:luminance" maskUnits="userSpaceOnUse" x="0" y="0" width="48" height="53">
<path d="M0 0H48V53H0V0Z" fill="white"/>
</mask>
<g mask="url(#mask0_1_7)">
<path d="M41.733 1.73C36.091 0.173004 29.823 -0.226996 23.156 0.110004C19.811 0.685004 16.774 1.551 14.123 2.78L12.087 0.591004C7.853 4.476 4.787 8.607 2.946 12.996V22.557C3.491 23.995 4.206 25.338 5.134 26.561C2.606 27.606 0.977 29.532 0 32.097V38.662C1.176 43.174 4.007 46.465 8.781 46.465L7.626 43.497L8.059 41.779L10.149 46.254L11.037 44.536L12.292 47.511L13.418 46.341C13.8 46.676 14.188 46.969 14.609 47.161L13.833 48.055L13.883 49.885L14.99 51.818L16.665 53H31.408L33.054 51.81L34.148 49.81V48.058L33.303 47.183L34.613 46.395L35.5 47.445L36.77 44.571L37.603 46.255L39.711 41.814L40.173 43.447L38.901 46.597C43.616 46.325 46.563 43.559 47.998 38.663V32.243C47.214 29.883 45.645 28.16 43.464 26.949C44.664 25.563 45.564 24.088 46.137 22.514C46.358 19.883 45.752 17.556 44.866 15.338L46.224 12.844C43.73 9.111 40.982 6.624 38.094 4.822L40.224 4.712L41.733 1.729V1.73Z" fill="black"/>
<path d="M37.462 2.92C34.21 1.924 29.047 2.101 23.091 2.08C18.617 3.03 14.501 4.542 10.811 6.718L11.902 3.502C9.62998 5.867 7.75398 8.319 6.36798 10.875H15.666V13.209H17.586V15.119H21.427V13.179H23.651V10.921H26.033V9.076L31.481 5.785L27.351 4.939L37.462 2.92Z" fill="#303030"/>
<path d="M37.463 2.92001L27.35 4.93701L33.965 2.29301C35.289 2.42001 36.466 2.61501 37.463 2.92001ZM17.09 47.556H19.56L20.88 48.814V49.864L19.592 50.892H17.145L15.747 49.93V48.858L17.09 47.556ZM28.354 47.556H30.824L32.144 48.814V49.864L30.856 50.892H28.408L27.011 49.93V48.858L28.354 47.556ZM36.39 29.618L39.07 31.521L37.69 28.379L36.39 29.618Z" fill="#303030"/>
<path d="M41.09 36.124L37.69 28.379H41.646C43.692 29.122 45.149 30.513 45.993 32.579V38.268L44.433 34.198L43.537 36.648L42.166 34.038L41.09 36.124ZM10.477 29.553L7.67999 31.47L8.95199 28.378L10.476 29.552L10.477 29.553Z" fill="#303030"/>
<path d="M5.79402 36.065L8.95702 28.378H6.26702C4.22202 29.122 2.76502 30.514 1.92102 32.579V38.268L3.48102 34.198L4.34402 36.561L5.09802 34.665L5.79402 36.065Z" fill="#303030"/>
<path d="M19.56 22.953V25.316L21.032 26.956L22.397 25.381V22.953L21.769 22.361H20.209L19.559 22.952L19.56 22.953ZM30.47 15.193H28.347V17.424H30.469L30.47 15.193ZM28.274 17.424H26.094V20.444H28.274V17.424Z" fill="#F2BF19"/>
<path d="M26.094 13.18H23.654V17.424H26.094V13.18Z" fill="white"/>
<path d="M21.433 15.12H19.571V17.424H21.433V15.12ZM21.433 17.424H19.571V20.36H21.433V17.424Z" fill="#303030"/>
<path d="M12.043 15.12H9.87701V17.424H12.043V15.12ZM9.87701 17.424H7.81201V20.385H9.87701V17.424Z" fill="#F2BF19"/>
<path d="M15.646 13.238H14.086V15.119H15.646V13.238ZM17.524 15.12L15.646 15.119V22.361H17.524V15.12ZM15.646 22.361L14.101 22.362V23.922H15.646V22.361ZM38.664 10.919H26.036V13.18H38.664V10.919Z" fill="white"/>
<path d="M38.664 10.919H30.47V13.18H38.665L38.664 10.919ZM40.447 13.18H36.823V17.424H40.447V13.18ZM40.448 17.424H38.635V20.444H40.448V17.424ZM36.866 22.354H34.758V26.19H36.866V22.354Z" fill="white"/>
<path d="M22.556 28.32L23.264 28.962L24.404 28.262L25.748 29.134L28.158 27.62L30.476 29.035L31.776 28.247L33.516 29.355L37.227 26.045H26.253L26.368 23.39H24.938L24.325 24.046L24.339 26.206L22.556 28.32Z" fill="#303030"/>
<path d="M28.274 22.354H26.094V26.278H28.274V22.354Z" fill="white"/>
<path d="M34.758 23.98H28.158V26.278H34.758V23.981V23.98Z" fill="white"/>
<path d="M19.159 20.36H17.524V22.361L19.159 20.36Z" fill="#303030"/>
<path d="M24.325 24.046V22.246L22.578 20.36H21.433V17.424H24.173V20.444H26.093V24.046H24.325Z" fill="white"/>
<path d="M31.711 30.742L32.838 31.382L37.372 37.612L35.437 39.902L31.711 30.742ZM31.942 32.535L35.032 40.384L33.329 42.571L32.102 39.901L30.268 42.571C30.003 41.327 29.444 39.926 28.766 38.458L29.302 40.835L26.838 44.185L25.982 41.395L24.444 43.77L23.004 41.075C23.121 41.548 23.211 41.992 23.213 42.342L22.211 44.285L21.011 42.412L19.82 44.975L17.139 41.492C17.225 41.139 17.47 40.707 17.749 40.259L21.759 32.332L24.302 30.698L25.298 31.201L25.255 31.989L28.2 30.071L31.942 32.535ZM11.61 40.266C11.716 39.809 11.938 39.313 12.188 38.807L15.091 36.62L16.836 37.336L16.375 42.305L15.985 43.627L14.182 40.974L14.382 40.119L15.046 39.379L14.992 37.726C14.992 37.726 14.49 37.865 14.49 37.876C14.4527 37.9825 14.413 38.0882 14.371 38.193C14.364 38.207 14.133 38.586 14.107 38.633C14.083 38.68 13.566 41.073 13.566 41.073L13.066 42.537L11.611 40.267L11.61 40.266Z" fill="#303030"/>
<path d="M14.087 10.933H6.16699V13.238H14.087V10.933Z" fill="white"/>
<path d="M7.56697 10.933H6.10797V13.238H7.56697V10.933Z" fill="white"/>
<path d="M14.101 23.922V26.278H7.40802L4.89502 22.36V13.237H6.10802V20.45H7.74802V22.382H9.82602V23.922H14.101Z" fill="white"/>
<path d="M17.6 24.014H15.646V26.278H9.97498L13.397 29.134L14.643 28.379L15.455 28.947L17.578 27.634L19.308 28.729L19.56 28.379L17.617 26.183L17.599 24.013L17.6 24.014Z" fill="#303030"/>
<path d="M14.101 23.922H11.451V26.278H14.101V23.922ZM7.74701 22.383L9.82701 23.923V22.383H7.74701ZM36.39 22.447L32.52 26.277H36.867V22.354H36.39V22.447Z" fill="white"/>
<path d="M32.52 23.98V26.278L34.823 23.981H32.52V23.98Z" fill="white"/>
<path d="M14.455 31.106L13.82 31.208L9.328 37.655L11.22 39.843L14.455 31.106ZM17.56 30.07L20.174 32.04L19.799 30.348L21.95 32.04L23.264 37.058L18.456 41.754L17.344 40.704L18.136 38.192C17.3419 39.4648 16.748 40.8519 16.375 42.305L14.382 40.12L14.83 38.049C14.41 38.905 13.989 39.932 13.566 41.076L11.891 39.257L14.454 32.358L17.56 30.07Z" fill="#303030"/>
<path d="M38.636 20.444H36.866V26.278H38.636V20.444ZM35.79 13.18L38.664 10.919V13.179H35.791L35.79 13.18Z" fill="white"/>
<path d="M41.733 1.73C36.091 0.173004 29.823 -0.226996 23.156 0.110004C19.811 0.685004 16.774 1.551 14.123 2.78L12.087 0.591004C7.853 4.476 4.787 8.607 2.946 12.996V22.557C3.491 23.995 4.206 25.338 5.134 26.561C2.606 27.606 0.977 29.532 0 32.097V38.662C1.176 43.174 4.007 46.465 8.781 46.465L7.626 43.497L8.059 41.779L10.149 46.254L11.037 44.536L12.292 47.511L13.418 46.341C13.8 46.676 14.188 46.969 14.609 47.161L13.833 48.055L13.883 49.885L14.99 51.818L16.665 53H31.408L33.054 51.81L34.148 49.81V48.058L33.303 47.183L34.613 46.395L35.5 47.445L36.77 44.571L37.603 46.255L39.711 41.814L40.173 43.447L38.901 46.597C43.616 46.325 46.563 43.559 47.998 38.663V32.243C47.214 29.883 45.645 28.16 43.464 26.949C44.664 25.563 45.564 24.088 46.137 22.514C46.358 19.883 45.752 17.556 44.866 15.338L46.224 12.844C43.73 9.111 40.982 6.624 38.094 4.822L40.224 4.712L41.733 1.729V1.73Z" fill="black"/>
<path d="M37.462 2.92C34.21 1.924 29.047 2.101 23.091 2.08C18.617 3.03 14.501 4.542 10.811 6.718L11.902 3.502C9.62998 5.867 7.75398 8.319 6.36798 10.875H15.666V13.209H17.586V15.119H21.427V13.179H23.651V10.921H26.033V9.076L31.48 5.785L27.35 4.939L37.462 2.92ZM17.09 47.556H19.56L20.88 48.814V49.864L19.592 50.892H17.145L15.747 49.93V48.858L17.09 47.556ZM28.354 47.556H30.824L32.144 48.814V49.864L30.856 50.892H28.408L27.011 49.93V48.858L28.354 47.556ZM36.39 29.618L39.07 31.521L37.69 28.379L36.39 29.618Z" fill="#303030"/>
<path d="M41.09 36.124L37.69 28.379H41.646C43.692 29.122 45.149 30.513 45.993 32.579V38.268L44.433 34.198L43.537 36.648L42.166 34.038L41.09 36.124ZM10.477 29.553L7.67999 31.47L8.95199 28.378L10.476 29.552L10.477 29.553Z" fill="#303030"/>
<path d="M5.79402 36.065L8.95702 28.378H6.26702C4.22202 29.122 2.76502 30.514 1.92102 32.579V38.268L3.48102 34.198L4.34402 36.561L5.09802 34.665L5.79402 36.065Z" fill="#303030"/>
<path d="M19.56 22.953V25.316L21.032 26.956L22.397 25.381V22.953L21.769 22.361H20.209L19.559 22.952L19.56 22.953ZM30.47 15.193H28.347V17.424H30.469L30.47 15.193ZM28.275 17.424H26.094V20.444H28.274L28.275 17.424Z" fill="#F2BF19"/>
<path d="M26.094 13.18H23.654V17.424H26.094V13.18Z" fill="white"/>
<path d="M21.433 15.12H19.571V17.424H21.433V15.12ZM21.433 17.424H19.571V20.36H21.433V17.424Z" fill="#303030"/>
<path d="M12.043 15.12H9.87701V17.424H12.043V15.12ZM9.87701 17.424H7.81201V20.385H9.87701V17.424Z" fill="#F2BF19"/>
<path d="M15.646 13.238H14.086V15.119H15.646V13.238ZM17.523 15.12L15.646 15.119V22.361H17.523V15.12ZM15.646 22.361L14.101 22.362V23.922H15.646V22.361ZM38.664 10.919H26.036V13.18H38.664V10.919Z" fill="white"/>
<path d="M38.664 10.919H30.47V13.18H38.665L38.664 10.919ZM40.447 13.18H36.823V17.424H40.447V13.18ZM40.448 17.424H38.635V20.444H40.448V17.424ZM36.866 22.354H34.758V26.19H36.866V22.354Z" fill="white"/>
<path d="M22.556 28.32L23.264 28.962L24.404 28.262L25.748 29.134L28.158 27.62L30.477 29.035L31.777 28.247L33.517 29.355L37.227 26.045H26.253L26.368 23.39H24.938L24.325 24.046L24.339 26.206L22.556 28.32Z" fill="#303030"/>
<path d="M28.275 22.354H26.094V26.278H28.274L28.275 22.354Z" fill="white"/>
<path d="M34.758 23.98H28.158V26.278H34.758V23.981V23.98Z" fill="white"/>
<path d="M19.159 20.36H17.524V22.361L19.159 20.36Z" fill="#303030"/>
<path d="M24.325 24.046V22.246L22.578 20.36H21.433V17.424H24.173V20.444H26.093V24.046H24.325Z" fill="white"/>
<path d="M31.711 30.742L32.838 31.382L37.372 37.612L35.437 39.902L31.711 30.742ZM31.942 32.535L35.032 40.384L33.329 42.571L32.102 39.901L30.268 42.571C30.003 41.327 29.444 39.926 28.766 38.458L29.302 40.835L26.838 44.185L25.982 41.395L24.444 43.77L23.004 41.075C23.121 41.548 23.211 41.992 23.213 42.342L22.211 44.285L21.011 42.412L19.82 44.975L17.139 41.492C17.225 41.139 17.47 40.707 17.749 40.259L21.759 32.332L24.302 30.698L25.298 31.201L25.255 31.989L28.2 30.071L31.942 32.535ZM11.61 40.266C11.716 39.809 11.938 39.313 12.188 38.807L15.091 36.62L16.836 37.336L16.375 42.305L15.985 43.627L14.182 40.974L14.382 40.119L15.046 39.379L14.992 37.726C14.992 37.726 14.49 37.865 14.49 37.876C14.49 37.886 14.378 38.178 14.371 38.193C14.364 38.207 14.133 38.586 14.107 38.633C14.082 38.68 13.566 41.073 13.566 41.073L13.066 42.537L11.61 40.266Z" fill="#303030"/>
<path d="M14.087 10.933H6.16699V13.238H14.087V10.933Z" fill="white"/>
<path d="M7.56697 10.933H6.10797V13.238H7.56697V10.933Z" fill="white"/>
<path d="M14.101 23.922V26.278H7.40802L4.89502 22.36V13.237H6.10802V20.45H7.74802V22.382H9.82602V23.922H14.101Z" fill="white"/>
<path d="M17.6 24.014H15.646V26.278H9.97498L13.397 29.134L14.643 28.379L15.455 28.947L17.578 27.634L19.308 28.729L19.56 28.379L17.617 26.183L17.599 24.013L17.6 24.014Z" fill="#303030"/>
<path d="M14.101 23.922H11.451V26.278H14.101V23.922ZM7.74701 22.383L9.82701 23.923V22.383H7.74701ZM36.39 22.447L32.52 26.277H36.867V22.354H36.39V22.447Z" fill="white"/>
<path d="M32.52 23.98V26.278L34.823 23.981H32.52V23.98Z" fill="white"/>
<path d="M14.455 31.106L13.82 31.208L9.328 37.655L11.22 39.843L14.455 31.106ZM17.56 30.07L20.174 32.04L19.799 30.348L21.95 32.04L23.264 37.058L18.456 41.754L17.344 40.704L18.136 38.192C17.3419 39.4648 16.748 40.8519 16.375 42.305L14.382 40.12L14.83 38.049C14.41 38.905 13.989 39.932 13.566 41.076L11.891 39.257L14.454 32.358L17.56 30.07Z" fill="#303030"/>
<path d="M38.636 20.444H36.866V26.278H38.636V20.444ZM35.79 13.18L38.664 10.919V13.179H35.791L35.79 13.18Z" fill="white"/>
</g>
</g>
<defs>
<clipPath id="clip0_1_7">
<rect width="48" height="53" fill="white"/>
</clipPath>
</defs>
</svg>
