<svg width="20" height="21" viewBox="0 0 20 21" fill="none" xmlns="http://www.w3.org/2000/svg">
<path d="M17.0034 0.810059H2.86836C2.58336 0.810059 2.30169 0.864225 2.03919 0.968392C1.77849 1.07074 1.53997 1.22239 1.33669 1.41506C1.13746 1.60395 0.978198 1.83094 0.86836 2.08256C0.760026 2.33256 0.704193 2.59923 0.705026 2.86923V16.3901C0.705026 16.6601 0.760026 16.9276 0.86836 17.1767C0.976693 17.4267 1.13586 17.6534 1.33669 17.8442C1.53753 18.0359 1.77586 18.1876 2.03919 18.2917C2.30169 18.3951 2.58336 18.4492 2.86836 18.4501H14.83L14.2717 16.6001L15.6217 17.7901L16.8984 18.9101L19.1667 20.8101V2.87006C19.1667 2.60006 19.1117 2.33339 19.0034 2.08339C18.8934 1.83207 18.7342 1.60538 18.535 1.41673C18.3321 1.22355 18.0939 1.07133 17.8334 0.968392C17.5693 0.864274 17.288 0.810569 17.0042 0.810059L17.0034 0.810059ZM12.9317 13.8701C12.9317 13.8701 12.5517 13.4401 12.235 13.0601C13.6175 12.6901 14.145 11.8701 14.145 11.8701C13.7634 12.1103 13.3565 12.3079 12.9317 12.4592C12.4391 12.6587 11.926 12.8032 11.4017 12.8901C10.4974 13.0478 9.57232 13.0444 8.66919 12.8801C8.14099 12.7821 7.62236 12.6382 7.11919 12.4501C6.85527 12.3536 6.59804 12.2397 6.34919 12.1092C6.31669 12.0901 6.28586 12.0801 6.25503 12.0592C6.23253 12.0501 6.22169 12.0401 6.21169 12.0301C6.02169 11.9301 5.91669 11.8601 5.91669 11.8601C5.91669 11.8601 6.42336 12.6601 7.76253 13.0401C7.44586 13.4201 7.05586 13.8701 7.05586 13.8701C4.72503 13.8001 3.83919 12.3501 3.83919 12.3501C3.83919 9.13006 5.35753 6.52006 5.35753 6.52006C6.87669 5.44006 8.32169 5.47006 8.32169 5.47006L8.42753 5.59089C6.52919 6.11006 5.65253 6.89923 5.65253 6.89923C5.65253 6.89923 5.88503 6.78006 6.27503 6.61006C7.40419 6.14006 8.30003 6.01006 8.66919 5.98006C8.73336 5.97006 8.78586 5.96006 8.84919 5.96006C10.6727 5.72446 12.5245 6.05279 14.1559 6.90089C14.1559 6.90089 13.3217 6.15089 11.5284 5.62923L11.6767 5.47089C11.6767 5.47089 13.1225 5.44006 14.6409 6.52006C14.6409 6.52006 16.16 9.13089 16.16 12.3501C16.16 12.3501 15.2634 13.8001 12.9317 13.8701Z" fill="#E4E4E7"/>
</svg>
