<svg width="18" height="17" viewBox="0 0 18 17" fill="none" xmlns="http://www.w3.org/2000/svg">
<path fill-rule="evenodd" clip-rule="evenodd" d="M9.00002 0.476807C4.39752 0.476807 0.666687 4.21347 0.666687 8.82431C0.666687 12.5118 3.05419 15.641 6.36585 16.7443C6.78252 16.821 6.93419 16.5635 6.93419 16.3418C6.93419 16.1443 6.92752 15.6185 6.92335 14.9226C4.60502 15.4268 4.11585 13.8035 4.11585 13.8035C3.73752 12.8385 3.19085 12.5818 3.19085 12.5818C2.43419 12.0651 3.24835 12.0751 3.24835 12.0751C4.08419 12.1335 4.52419 12.9351 4.52419 12.9351C5.26752 14.2101 6.47502 13.8418 6.94919 13.6285C7.02585 13.0893 7.24085 12.7218 7.47919 12.5135C5.62919 12.3026 3.68335 11.586 3.68335 8.38764C3.68335 7.47681 4.00835 6.73097 4.54085 6.14764C4.45502 5.93681 4.16919 5.08764 4.62252 3.93931C4.62252 3.93931 5.32252 3.71431 6.91419 4.79431C7.59399 4.6089 8.29538 4.51447 9.00002 4.51347C9.70835 4.51681 10.4209 4.60931 11.0867 4.79431C12.6775 3.71431 13.3759 3.93847 13.3759 3.93847C13.8309 5.08764 13.5442 5.93681 13.4592 6.14764C13.9925 6.73097 14.3159 7.47681 14.3159 8.38764C14.3159 11.5943 12.3667 12.3001 10.5109 12.5068C10.81 12.7643 11.0759 13.2735 11.0759 14.0526C11.0759 15.1676 11.0659 16.0685 11.0659 16.3418C11.0659 16.5651 11.2159 16.8251 11.6392 16.7435C13.2986 16.1869 14.7411 15.1229 15.7629 13.7018C16.7847 12.2808 17.3341 10.5746 17.3334 8.82431C17.3334 4.21347 13.6017 0.476807 9.00002 0.476807Z" fill="#E4E4E7"/>
</svg>
