<svg width="18" height="14" viewBox="0 0 18 14" fill="none" xmlns="http://www.w3.org/2000/svg">
<path d="M5.90835 13.6859C12.1975 13.6859 15.6375 8.47502 15.6375 3.95669C15.6375 3.80836 15.6375 3.66086 15.6275 3.51502C16.2968 3.03046 16.8745 2.43053 17.3334 1.74336C16.7092 2.02003 16.0471 2.20149 15.3692 2.28169C16.0831 1.85424 16.6173 1.18198 16.8725 0.390023C16.2014 0.788261 15.4673 1.06896 14.7017 1.22002C14.1862 0.671494 13.5042 0.308218 12.7614 0.186443C12.0185 0.0646687 11.2563 0.191189 10.5926 0.546413C9.92896 0.901638 9.40092 1.46575 9.09026 2.15141C8.77961 2.83706 8.70366 3.60601 8.87419 4.33919C7.51468 4.27106 6.18469 3.91779 4.97056 3.30233C3.75643 2.68687 2.68529 1.82296 1.82669 0.766689C1.38945 1.51936 1.25551 2.41037 1.45213 3.25833C1.64876 4.10628 2.16116 4.84742 2.88502 5.33086C2.34107 5.31511 1.80888 5.16877 1.33335 4.90419V4.94752C1.33368 5.73694 1.60702 6.50194 2.10702 7.11282C2.60702 7.7237 3.30291 8.14284 4.07669 8.29919C3.5732 8.43645 3.04493 8.45641 2.53252 8.35752C2.75099 9.03708 3.17642 9.63136 3.74929 10.0572C4.32217 10.483 5.01383 10.7192 5.72752 10.7325C5.01845 11.2897 4.20651 11.7016 3.33813 11.9446C2.46974 12.1877 1.56196 12.2572 0.666687 12.1492C2.23052 13.1528 4.05018 13.6851 5.90835 13.6825" fill="#E4E4E7"/>
</svg>
